<?xml version="1.0" standalone="no"?>
<!DOCTYPE svg PUBLIC "-//W3C//DTD SVG 20010904//EN"
 "http://www.w3.org/TR/2001/REC-SVG-20010904/DTD/svg10.dtd">
<svg version="1.0" xmlns="http://www.w3.org/2000/svg"
 width="67.000000pt" height="67.000000pt" viewBox="0 0 67.000000 67.000000"
 preserveAspectRatio="xMidYMid meet">

<g transform="translate(0.000000,67.000000) scale(0.100000,-0.100000)"
fill="#000000" stroke="none">
<path d="M275 410 c-87 -32 -109 -39 -167 -55 -65 -17 -88 -36 -81 -65 4 -16
14 -20 43 -20 21 0 43 -7 50 -15 16 -19 44 -19 64 0 21 21 262 21 290 0 25
-19 50 -19 66 0 7 8 26 15 42 15 67 0 93 53 43 86 -31 20 -31 28 -2 42 30 15
-3 16 -36 1 -18 -8 -42 -6 -104 10 -99 26 -143 26 -208 1z m99 4 c9 -3 16 -15
16 -25 0 -17 -8 -19 -60 -19 -71 0 -84 22 -22 38 49 13 48 13 66 6z m96 -24
c10 -6 3 -10 -23 -15 -42 -8 -52 -3 -43 20 6 16 29 14 66 -5z m-292 -72 c28
-28 1 -75 -37 -63 -11 3 -23 15 -26 26 -12 38 35 65 63 37z m362 -3 c15 -19 4
-52 -21 -60 -38 -12 -65 35 -37 63 16 16 43 15 58 -3z"/>
</g>
</svg>
